<svg width="140" height="47" viewBox="0 0 140 47" fill="none" xmlns="http://www.w3.org/2000/svg">
<path d="M17.4037 22.0381H27.0246L25.0145 31.6591H15.3936L17.4037 22.0381Z" fill="#1A88F0"/>
<path d="M12.8379 16.2656H18.6104L17.4044 22.0382H11.6318L12.8379 16.2656Z" fill="#1A88F0"/>
<path d="M2.66036 31.6592H15.3935L12.7331 44.3924H0L2.66036 31.6592Z" fill="#1A88F0"/>
<path d="M39.4593 2.29883H43.3077L42.5036 6.1472H38.6553L39.4593 2.29883Z" fill="#1A88F0"/>
<path d="M27.8285 18.1899H31.6768L30.8728 22.0383H27.0244L27.8285 18.1899Z" fill="#1A88F0"/>
<path d="M32.8828 6.14697H38.6554L37.4493 11.9195H31.6768L32.8828 6.14697Z" fill="#1A88F0"/>
<path d="M50.9971 38.3665C49.074 38.3665 47.2503 38.1344 45.5261 37.6702C43.802 37.206 42.3983 36.6092 41.3151 35.8797L43.9014 30.9724C45.073 31.724 46.3219 32.2987 47.6482 32.6966C48.9745 33.0724 50.3008 33.2603 51.6271 33.2603C52.8871 33.2603 53.8597 33.0835 54.545 32.7298C55.2523 32.354 55.606 31.8456 55.606 31.2045C55.606 30.6519 55.2855 30.2209 54.6445 29.9114C54.0255 29.6019 53.0529 29.2703 51.7266 28.9167C50.2235 28.5188 48.9745 28.1209 47.9798 27.723C46.9851 27.303 46.123 26.673 45.3935 25.833C44.6862 24.993 44.3325 23.8878 44.3325 22.5173C44.3325 20.8594 44.7856 19.4115 45.6919 18.1736C46.5982 16.9136 47.8914 15.941 49.5714 15.2558C51.2513 14.5705 53.2187 14.2279 55.4734 14.2279C57.1313 14.2279 58.6786 14.4047 60.1155 14.7584C61.5523 15.09 62.7902 15.5763 63.8291 16.2173L61.4418 21.0915C60.5354 20.5167 59.5297 20.0857 58.4244 19.7983C57.3413 19.4889 56.225 19.3341 55.0755 19.3341C53.7713 19.3341 52.7434 19.5441 51.9919 19.9641C51.2624 20.3841 50.8977 20.9257 50.8977 21.5888C50.8977 22.1636 51.2182 22.6057 51.8592 22.9151C52.5003 23.2246 53.495 23.5562 54.8434 23.9099C56.3465 24.2857 57.5844 24.6725 58.557 25.0704C59.5518 25.4683 60.4028 26.0762 61.1102 26.894C61.8175 27.7119 62.1712 28.784 62.1712 30.1103C62.1712 31.7461 61.707 33.194 60.7786 34.454C59.8723 35.6918 58.5681 36.6534 56.866 37.3387C55.186 38.0239 53.2297 38.3665 50.9971 38.3665ZM70.809 31.2045C70.7648 31.514 70.7427 31.7129 70.7427 31.8014C70.7427 32.8182 71.2953 33.3266 72.4006 33.3266C72.9974 33.3266 73.6274 33.1498 74.2905 32.7961L75.0863 37.1397C73.8484 37.8471 72.29 38.2008 70.4111 38.2008C68.5543 38.2008 67.0733 37.7366 65.968 36.8081C64.8849 35.8797 64.3433 34.5866 64.3433 32.9287C64.3433 32.2877 64.3985 31.724 64.5091 31.2377L65.7027 25.3025H63.0501L64.0117 20.5941H66.6312L67.5596 15.9189H73.8595L72.9311 20.5941H77.0095L76.081 25.3025H72.0027L70.809 31.2045ZM85.3755 21.9204C86.8786 20.3952 89.0449 19.6326 91.8744 19.6326L90.7802 25.3025C90.2276 25.2362 89.7523 25.203 89.3544 25.203C87.9397 25.203 86.8013 25.5456 85.9392 26.2309C85.0992 26.894 84.5355 27.9551 84.2481 29.414L82.524 37.9023H76.224L79.805 19.931H85.7734L85.3755 21.9204ZM93.3815 19.931H99.6483L96.0672 37.9023H89.8005L93.3815 19.931ZM97.3935 17.9415C96.3104 17.9415 95.4372 17.6431 94.7741 17.0463C94.1109 16.4494 93.7794 15.7089 93.7794 14.8247C93.7794 13.7858 94.1441 12.9347 94.8736 12.2716C95.6251 11.5863 96.6088 11.2437 97.8246 11.2437C98.9298 11.2437 99.814 11.5311 100.477 12.1058C101.14 12.6584 101.472 13.3768 101.472 14.261C101.472 15.3442 101.096 16.2284 100.345 16.9136C99.593 17.5989 98.6093 17.9415 97.3935 17.9415ZM121.584 19.931L110.609 37.9023H104.077L100.264 19.931H106.498L108.686 30.9393L115.351 19.931H121.584ZM138.412 27.524C138.412 28.3861 138.291 29.3698 138.047 30.4751H124.851C125.072 32.4203 126.431 33.3929 128.929 33.3929C129.725 33.3929 130.499 33.2713 131.25 33.0282C132.002 32.785 132.676 32.4203 133.273 31.934L135.892 35.8797C133.792 37.4271 131.239 38.2008 128.233 38.2008C126.332 38.2008 124.652 37.8692 123.193 37.206C121.756 36.5208 120.64 35.5703 119.844 34.3545C119.07 33.1166 118.683 31.6687 118.683 30.0109C118.683 28.0435 119.137 26.2751 120.043 24.7056C120.971 23.1141 122.253 21.8762 123.889 20.992C125.547 20.0857 127.437 19.6326 129.559 19.6326C131.35 19.6326 132.908 19.9641 134.234 20.6273C135.583 21.2683 136.611 22.1857 137.318 23.3793C138.047 24.573 138.412 25.9546 138.412 27.524ZM129.261 24.1088C128.244 24.1088 127.393 24.3851 126.708 24.9378C126.022 25.4683 125.525 26.2088 125.216 27.1593H132.61C132.632 26.2088 132.333 25.4683 131.714 24.9378C131.095 24.3851 130.278 24.1088 129.261 24.1088Z" fill="white"/>
</svg>
